<?xml version="1.0" encoding="UTF-8" standalone="no"?>
<!DOCTYPE svg PUBLIC "-//W3C//DTD SVG 1.0//EN" "http://www.w3.org/TR/2001/PR-SVG-20010719/DTD/svg10.dtd">
<svg width="47cm" height="74cm" viewBox="-17 -1 938 1462" xmlns="http://www.w3.org/2000/svg" xmlns:xlink="http://www.w3.org/1999/xlink">
  <g>
    <ellipse style="fill: #ffffff" cx="40" cy="64" rx="6" ry="6"/>
    <ellipse style="fill: none; fill-opacity:0; stroke-width: 2; stroke: #000000" cx="40" cy="64" rx="6" ry="6"/>
    <line style="fill: none; fill-opacity:0; stroke-width: 2; stroke: #000000" x1="16" y1="76" x2="64" y2="76"/>
    <line style="fill: none; fill-opacity:0; stroke-width: 2; stroke: #000000" x1="40" y1="70" x2="40" y2="100"/>
    <line style="fill: none; fill-opacity:0; stroke-width: 2; stroke: #000000" x1="40" y1="100" x2="16" y2="126"/>
    <line style="fill: none; fill-opacity:0; stroke-width: 2; stroke: #000000" x1="40" y1="100" x2="64" y2="126"/>
    <text font-size="12.8" style="fill: #000000;text-anchor:middle;font-family:sans-serif;font-style:normal;font-weight:normal" x="40" y="150.8">
      <tspan x="40" y="150.8">Неавторизованный</tspan>
      <tspan x="40" y="166.8">пользователь</tspan>
    </text>
  </g>
  <g>
    <ellipse style="fill: #ffffff" cx="521.725" cy="160.575" rx="61.725" ry="20.575"/>
    <ellipse style="fill: none; fill-opacity:0; stroke-width: 2; stroke: #000000" cx="521.725" cy="160.575" rx="61.725" ry="20.575"/>
    <text font-size="12.8" style="fill: #000000;text-anchor:middle;font-family:sans-serif;font-style:normal;font-weight:normal" x="521.725" y="165.375">
      <tspan x="521.725" y="165.375">Авторизация</tspan>
    </text>
  </g>
  <g>
    <line style="fill: none; fill-opacity:0; stroke-width: 2; stroke-dasharray: 10; stroke: #000000" x1="553.598" y1="139.031" x2="605.555" y2="103.913"/>
    <polyline style="fill: none; fill-opacity:0; stroke-width: 2; stroke: #000000" points="601.922,112.403 607.407,102.661 596.322,104.118 "/>
  </g>
  <g>
    <rect style="fill: #ffffff" x="544.504" y="112.495" width="73.85" height="15.45"/>
    <text font-size="12.8" style="fill: #000000;text-anchor:middle;font-family:sans-serif;font-style:normal;font-weight:normal" x="581.429" y="125.295">
      <tspan x="581.429" y="125.295">"расширить"</tspan>
    </text>
  </g>
  <line style="fill: none; fill-opacity:0; stroke-width: 2; stroke: #000000" x1="65" y1="100" x2="460" y2="160.575"/>
  <g>
    <ellipse style="fill: #ffffff" cx="640.625" cy="80.2083" rx="60.625" ry="20.2083"/>
    <ellipse style="fill: none; fill-opacity:0; stroke-width: 2; stroke: #000000" cx="640.625" cy="80.2083" rx="60.625" ry="20.2083"/>
    <text font-size="12.8" style="fill: #000000;text-anchor:middle;font-family:sans-serif;font-style:normal;font-weight:normal" x="640.625" y="85.0083">
      <tspan x="640.625" y="85.0083">Регистрация</tspan>
    </text>
  </g>
  <g>
    <ellipse style="fill: #ffffff" cx="40" cy="264" rx="6" ry="6"/>
    <ellipse style="fill: none; fill-opacity:0; stroke-width: 2; stroke: #000000" cx="40" cy="264" rx="6" ry="6"/>
    <line style="fill: none; fill-opacity:0; stroke-width: 2; stroke: #000000" x1="16" y1="276" x2="64" y2="276"/>
    <line style="fill: none; fill-opacity:0; stroke-width: 2; stroke: #000000" x1="40" y1="270" x2="40" y2="300"/>
    <line style="fill: none; fill-opacity:0; stroke-width: 2; stroke: #000000" x1="40" y1="300" x2="16" y2="326"/>
    <line style="fill: none; fill-opacity:0; stroke-width: 2; stroke: #000000" x1="40" y1="300" x2="64" y2="326"/>
    <text font-size="12.8" style="fill: #000000;text-anchor:middle;font-family:sans-serif;font-style:normal;font-weight:normal" x="40" y="350.8">
      <tspan x="40" y="350.8">Авторизованный</tspan>
      <tspan x="40" y="366.8">пользователь</tspan>
    </text>
  </g>
  <g>
    <ellipse style="fill: #ffffff" cx="140" cy="484" rx="6" ry="6"/>
    <ellipse style="fill: none; fill-opacity:0; stroke-width: 2; stroke: #000000" cx="140" cy="484" rx="6" ry="6"/>
    <line style="fill: none; fill-opacity:0; stroke-width: 2; stroke: #000000" x1="116" y1="496" x2="164" y2="496"/>
    <line style="fill: none; fill-opacity:0; stroke-width: 2; stroke: #000000" x1="140" y1="490" x2="140" y2="520"/>
    <line style="fill: none; fill-opacity:0; stroke-width: 2; stroke: #000000" x1="140" y1="520" x2="116" y2="546"/>
    <line style="fill: none; fill-opacity:0; stroke-width: 2; stroke: #000000" x1="140" y1="520" x2="164" y2="546"/>
    <text font-size="12.8" style="fill: #000000;text-anchor:middle;font-family:sans-serif;font-style:normal;font-weight:normal" x="140" y="570.8">
      <tspan x="140" y="570.8">Заказчик</tspan>
    </text>
  </g>
  <g>
    <ellipse style="fill: #ffffff" cx="120" cy="664" rx="6" ry="6"/>
    <ellipse style="fill: none; fill-opacity:0; stroke-width: 2; stroke: #000000" cx="120" cy="664" rx="6" ry="6"/>
    <line style="fill: none; fill-opacity:0; stroke-width: 2; stroke: #000000" x1="96" y1="676" x2="144" y2="676"/>
    <line style="fill: none; fill-opacity:0; stroke-width: 2; stroke: #000000" x1="120" y1="670" x2="120" y2="700"/>
    <line style="fill: none; fill-opacity:0; stroke-width: 2; stroke: #000000" x1="120" y1="700" x2="96" y2="726"/>
    <line style="fill: none; fill-opacity:0; stroke-width: 2; stroke: #000000" x1="120" y1="700" x2="144" y2="726"/>
    <text font-size="12.8" style="fill: #000000;text-anchor:middle;font-family:sans-serif;font-style:normal;font-weight:normal" x="120" y="750.8">
      <tspan x="120" y="750.8">Мастер</tspan>
    </text>
  </g>
  <g>
    <ellipse style="fill: #ffffff" cx="564.85" cy="572" rx="64.85" ry="32"/>
    <ellipse style="fill: none; fill-opacity:0; stroke-width: 2; stroke: #000000" cx="564.85" cy="572" rx="64.85" ry="32"/>
    <text font-size="12.8" style="fill: #000000;text-anchor:middle;font-family:sans-serif;font-style:normal;font-weight:normal" x="564.85" y="568.8">
      <tspan x="564.85" y="568.8">Отправка</tspan>
      <tspan x="564.85" y="584.8">сообщения</tspan>
    </text>
  </g>
  <g>
    <ellipse style="fill: #ffffff" cx="375.85" cy="552" rx="55.85" ry="32"/>
    <ellipse style="fill: none; fill-opacity:0; stroke-width: 2; stroke: #000000" cx="375.85" cy="552" rx="55.85" ry="32"/>
    <text font-size="12.8" style="fill: #000000;text-anchor:middle;font-family:sans-serif;font-style:normal;font-weight:normal" x="375.85" y="548.8">
      <tspan x="375.85" y="548.8">Отправка</tspan>
      <tspan x="375.85" y="564.8">мастеру</tspan>
    </text>
  </g>
  <g>
    <ellipse style="fill: #ffffff" cx="378.45" cy="632" rx="58.45" ry="32"/>
    <ellipse style="fill: none; fill-opacity:0; stroke-width: 2; stroke: #000000" cx="378.45" cy="632" rx="58.45" ry="32"/>
    <text font-size="12.8" style="fill: #000000;text-anchor:middle;font-family:sans-serif;font-style:normal;font-weight:normal" x="378.45" y="628.8">
      <tspan x="378.45" y="628.8">Отправка</tspan>
      <tspan x="378.45" y="644.8">заказчику</tspan>
    </text>
  </g>
  <line style="fill: none; fill-opacity:0; stroke-width: 2; stroke: #000000" x1="165" y1="520" x2="320" y2="552"/>
  <line style="fill: none; fill-opacity:0; stroke-width: 2; stroke: #000000" x1="145" y1="700" x2="320" y2="632"/>
  <g>
    <ellipse style="fill: #ffffff" cx="416.85" cy="72" rx="56.85" ry="32"/>
    <ellipse style="fill: none; fill-opacity:0; stroke-width: 2; stroke: #000000" cx="416.85" cy="72" rx="56.85" ry="32"/>
    <text font-size="12.8" style="fill: #000000;text-anchor:middle;font-family:sans-serif;font-style:normal;font-weight:normal" x="416.85" y="68.8">
      <tspan x="416.85" y="68.8">Просмотр</tspan>
      <tspan x="416.85" y="84.8">Отзывов</tspan>
    </text>
  </g>
  <g>
    <ellipse style="fill: #ffffff" cx="406.7" cy="472" rx="86.7" ry="32"/>
    <ellipse style="fill: none; fill-opacity:0; stroke-width: 2; stroke: #000000" cx="406.7" cy="472" rx="86.7" ry="32"/>
    <text font-size="12.8" style="fill: #000000;text-anchor:middle;font-family:sans-serif;font-style:normal;font-weight:normal" x="406.7" y="468.8">
      <tspan x="406.7" y="468.8">Подача заявки</tspan>
      <tspan x="406.7" y="484.8">на ремонт</tspan>
    </text>
  </g>
  <line style="fill: none; fill-opacity:0; stroke-width: 2; stroke: #000000" x1="165" y1="520" x2="320" y2="472"/>
  <line style="fill: none; fill-opacity:0; stroke-width: 2; stroke: #000000" x1="65" y1="100" x2="360" y2="72"/>
  <g>
    <line style="fill: none; fill-opacity:0; stroke-width: 2; stroke: #000000" x1="40" y1="245.007" x2="40" y2="181.047"/>
    <polygon style="fill: #ffffff" points="48,181.047 40,171.047 32,181.047 "/>
    <polygon style="fill: none; fill-opacity:0; stroke-width: 2; stroke: #000000" points="48,181.047 40,171.047 32,181.047 "/>
  </g>
  <g>
    <line style="fill: none; fill-opacity:0; stroke-width: 2; stroke: #000000" x1="114.997" y1="464.993" x2="76.3709" y2="380.016"/>
    <polygon style="fill: #ffffff" points="83.6538,376.705 72.2328,370.912 69.0879,383.326 "/>
    <polygon style="fill: none; fill-opacity:0; stroke-width: 2; stroke: #000000" points="83.6538,376.705 72.2328,370.912 69.0879,383.326 "/>
  </g>
  <g>
    <line style="fill: none; fill-opacity:0; stroke-width: 2; stroke: #000000" x1="109.001" y1="645.007" x2="56.1643" y2="380.821"/>
    <polygon style="fill: #ffffff" points="64.0089,379.252 54.2031,371.015 48.3196,382.39 "/>
    <polygon style="fill: none; fill-opacity:0; stroke-width: 2; stroke: #000000" points="64.0089,379.252 54.2031,371.015 48.3196,382.39 "/>
  </g>
  <g>
    <ellipse style="fill: #ffffff" cx="40" cy="1304" rx="6" ry="6"/>
    <ellipse style="fill: none; fill-opacity:0; stroke-width: 2; stroke: #000000" cx="40" cy="1304" rx="6" ry="6"/>
    <line style="fill: none; fill-opacity:0; stroke-width: 2; stroke: #000000" x1="16" y1="1316" x2="64" y2="1316"/>
    <line style="fill: none; fill-opacity:0; stroke-width: 2; stroke: #000000" x1="40" y1="1310" x2="40" y2="1340"/>
    <line style="fill: none; fill-opacity:0; stroke-width: 2; stroke: #000000" x1="40" y1="1340" x2="16" y2="1366"/>
    <line style="fill: none; fill-opacity:0; stroke-width: 2; stroke: #000000" x1="40" y1="1340" x2="64" y2="1366"/>
    <text font-size="12.8" style="fill: #000000;text-anchor:middle;font-family:sans-serif;font-style:normal;font-weight:normal" x="40" y="1390.8">
      <tspan x="40" y="1390.8">Администратор</tspan>
    </text>
  </g>
  <g>
    <line style="fill: none; fill-opacity:0; stroke-width: 2; stroke: #000000" x1="40" y1="1285.01" x2="40" y2="381.052"/>
    <polygon style="fill: #ffffff" points="48,381.052 40,371.052 32,381.052 "/>
    <polygon style="fill: none; fill-opacity:0; stroke-width: 2; stroke: #000000" points="48,381.052 40,371.052 32,381.052 "/>
  </g>
  <g>
    <ellipse style="fill: #ffffff" cx="448.175" cy="1276.06" rx="108.175" ry="36.0583"/>
    <ellipse style="fill: none; fill-opacity:0; stroke-width: 2; stroke: #000000" cx="448.175" cy="1276.06" rx="108.175" ry="36.0583"/>
    <text font-size="12.8" style="fill: #000000;text-anchor:middle;font-family:sans-serif;font-style:normal;font-weight:normal" x="448.175" y="1272.86">
      <tspan x="448.175" y="1272.86">Предоставление</tspan>
      <tspan x="448.175" y="1288.86">прав пользователям</tspan>
    </text>
  </g>
  <line style="fill: none; fill-opacity:0; stroke-width: 2; stroke: #000000" x1="65" y1="1340" x2="340" y2="1276.06"/>
  <g>
    <line style="fill: none; fill-opacity:0; stroke-width: 2; stroke: #000000" x1="436.9" y1="632" x2="508.436" y2="599.434"/>
    <polygon style="fill: #ffffff" points="511.751,606.715 517.537,595.291 505.121,592.153 "/>
    <polygon style="fill: none; fill-opacity:0; stroke-width: 2; stroke: #000000" points="511.751,606.715 517.537,595.291 505.121,592.153 "/>
  </g>
  <g>
    <line style="fill: none; fill-opacity:0; stroke-width: 2; stroke: #000000" x1="431.7" y1="552" x2="488.867" y2="568.74"/>
    <polygon style="fill: #ffffff" points="486.619,576.417 498.464,571.55 491.115,561.062 "/>
    <polygon style="fill: none; fill-opacity:0; stroke-width: 2; stroke: #000000" points="486.619,576.417 498.464,571.55 491.115,561.062 "/>
  </g>
  <g>
    <ellipse style="fill: #ffffff" cx="242.15" cy="760" rx="42.15" ry="20"/>
    <ellipse style="fill: none; fill-opacity:0; stroke-width: 2; stroke: #000000" cx="242.15" cy="760" rx="42.15" ry="20"/>
    <text font-size="12.8" style="fill: #000000;text-anchor:middle;font-family:sans-serif;font-style:normal;font-weight:normal" x="242.15" y="764.8">
      <tspan x="242.15" y="764.8">Ремонт</tspan>
    </text>
  </g>
  <line style="fill: none; fill-opacity:0; stroke-width: 2; stroke: #000000" x1="145" y1="700" x2="212.345" y2="745.858"/>
  <g>
    <ellipse style="fill: #ffffff" cx="415.85" cy="252" rx="95.85" ry="32"/>
    <ellipse style="fill: none; fill-opacity:0; stroke-width: 2; stroke: #000000" cx="415.85" cy="252" rx="95.85" ry="32"/>
    <text font-size="12.8" style="fill: #000000;text-anchor:middle;font-family:sans-serif;font-style:normal;font-weight:normal" x="415.85" y="248.8">
      <tspan x="415.85" y="248.8">Редактирование</tspan>
      <tspan x="415.85" y="264.8">профиля</tspan>
    </text>
  </g>
  <line style="fill: none; fill-opacity:0; stroke-width: 2; stroke: #000000" x1="65" y1="300" x2="320" y2="252"/>
  <g>
    <ellipse style="fill: #ffffff" cx="420.225" cy="373.408" rx="100.225" ry="33.4083"/>
    <ellipse style="fill: none; fill-opacity:0; stroke-width: 2; stroke: #000000" cx="420.225" cy="373.408" rx="100.225" ry="33.4083"/>
    <text font-size="12.8" style="fill: #000000;text-anchor:middle;font-family:sans-serif;font-style:normal;font-weight:normal" x="420.225" y="370.208">
      <tspan x="420.225" y="370.208">Просмотр статуса</tspan>
      <tspan x="420.225" y="386.208">аппарата</tspan>
    </text>
  </g>
  <line style="fill: none; fill-opacity:0; stroke-width: 2; stroke: #000000" x1="65" y1="300" x2="320" y2="373.408"/>
  <g>
    <polygon style="fill: #ffffff" points="580,340 709.2,340 721.2,352 721.2,406 580,406 "/>
    <polygon style="fill: none; fill-opacity:0; stroke-width: 2; stroke: #000000" points="580,340 709.2,340 721.2,352 721.2,406 580,406 "/>
    <polyline style="fill: none; fill-opacity:0; stroke-width: 1; stroke: #000000" points="709.2,340 709.2,352 721.2,352 "/>
    <text font-size="12.8" style="fill: #000000;text-anchor:start;font-family:monospace;font-style:normal;font-weight:normal" x="587" y="363.65">
      <tspan x="587" y="363.65">Аппарат, имеющий</tspan>
      <tspan x="587" y="379.65">отношение</tspan>
      <tspan x="587" y="395.65">к пользователю</tspan>
    </text>
  </g>
  <line style="fill: none; fill-opacity:0; stroke-width: 2; stroke-dasharray: 10; stroke: #000000" x1="520.45" y1="373.408" x2="579.003" y2="373.224"/>
  <g>
    <rect style="fill: #ffffff" x="300" y="0" width="68.45" height="36"/>
    <rect style="fill: none; fill-opacity:0; stroke-width: 2; stroke: #000000" x="300" y="0" width="68.45" height="36"/>
    <text font-size="12.8" style="fill: #000000;text-anchor:middle;font-family:sans-serif;font-style:normal;font-weight:normal" x="334.225" y="22.8">
      <tspan x="334.225" y="22.8">Система</tspan>
    </text>
    <line style="fill: none; fill-opacity:0; stroke-width: 1; stroke: #000000" x1="310" y1="25.45" x2="358.45" y2="25.45"/>
  </g>
  <polyline style="fill: none; fill-opacity:0; stroke-width: 2; stroke: #000000" points="300,36 300,1460 920,1460 920,0 368.45,0 "/>
  <g>
    <ellipse style="fill: #ffffff" cx="405.6" cy="1370.4" rx="45.6" ry="30.4"/>
    <ellipse style="fill: none; fill-opacity:0; stroke-width: 2; stroke: #000000" cx="405.6" cy="1370.4" rx="45.6" ry="30.4"/>
    <text font-size="12.7998" style="fill: #000000;text-anchor:middle;font-family:sans-serif;font-style:normal;font-weight:normal" x="405.6" y="1367.2">
      <tspan x="405.6" y="1367.2">Бан на</tspan>
      <tspan x="405.6" y="1383.2">отзывы</tspan>
    </text>
  </g>
  <line style="fill: none; fill-opacity:0; stroke-width: 2; stroke: #000000" x1="65" y1="1340" x2="360" y2="1370.4"/>
  <g>
    <ellipse style="fill: #ffffff" cx="216.75" cy="632" rx="56.75" ry="32"/>
    <ellipse style="fill: none; fill-opacity:0; stroke-width: 2; stroke: #000000" cx="216.75" cy="632" rx="56.75" ry="32"/>
    <text font-size="12.7998" style="fill: #000000;text-anchor:middle;font-family:sans-serif;font-style:normal;font-weight:normal" x="216.75" y="628.8">
      <tspan x="216.75" y="628.8">Передача</tspan>
      <tspan x="216.75" y="644.8">аппарата</tspan>
    </text>
  </g>
  <line style="fill: none; fill-opacity:0; stroke-width: 2; stroke: #000000" x1="165" y1="574" x2="216.75" y2="600"/>
  <line style="fill: none; fill-opacity:0; stroke-width: 2; stroke: #000000" x1="216.75" y1="664" x2="145" y2="700"/>
  <g>
    <ellipse style="fill: #ffffff" cx="100" cy="944" rx="6" ry="6"/>
    <ellipse style="fill: none; fill-opacity:0; stroke-width: 2; stroke: #000000" cx="100" cy="944" rx="6" ry="6"/>
    <line style="fill: none; fill-opacity:0; stroke-width: 2; stroke: #000000" x1="76" y1="956" x2="124" y2="956"/>
    <line style="fill: none; fill-opacity:0; stroke-width: 2; stroke: #000000" x1="100" y1="950" x2="100" y2="980"/>
    <line style="fill: none; fill-opacity:0; stroke-width: 2; stroke: #000000" x1="100" y1="980" x2="76" y2="1006"/>
    <line style="fill: none; fill-opacity:0; stroke-width: 2; stroke: #000000" x1="100" y1="980" x2="124" y2="1006"/>
    <text font-size="12.7998" style="fill: #000000;text-anchor:middle;font-family:sans-serif;font-style:normal;font-weight:normal" x="100" y="1030.8">
      <tspan x="100" y="1030.8">Распорядитель</tspan>
    </text>
  </g>
  <g>
    <line style="fill: none; fill-opacity:0; stroke-width: 2; stroke: #000000" x1="95.1468" y1="924.997" x2="47.1473" y2="381.002"/>
    <polygon style="fill: #ffffff" points="55.1163,380.299 46.2683,371.041 39.1782,381.705 "/>
    <polygon style="fill: none; fill-opacity:0; stroke-width: 2; stroke: #000000" points="55.1163,380.299 46.2683,371.041 39.1782,381.705 "/>
  </g>
  <g>
    <ellipse style="fill: #ffffff" cx="190.05" cy="872" rx="70.05" ry="32"/>
    <ellipse style="fill: none; fill-opacity:0; stroke-width: 2; stroke: #000000" cx="190.05" cy="872" rx="70.05" ry="32"/>
    <text font-size="12.7998" style="fill: #000000;text-anchor:middle;font-family:sans-serif;font-style:normal;font-weight:normal" x="190.05" y="868.8">
      <tspan x="190.05" y="868.8">Управление</tspan>
      <tspan x="190.05" y="884.8">мастерами</tspan>
    </text>
  </g>
  <line style="fill: none; fill-opacity:0; stroke-width: 2; stroke: #000000" x1="190.05" y1="904" x2="125" y2="980"/>
  <g>
    <ellipse style="fill: #ffffff" cx="401.575" cy="967.192" rx="81.575" ry="27.1917"/>
    <ellipse style="fill: none; fill-opacity:0; stroke-width: 2; stroke: #000000" cx="401.575" cy="967.192" rx="81.575" ry="27.1917"/>
    <text font-size="12.7998" style="fill: #000000;text-anchor:middle;font-family:sans-serif;font-style:normal;font-weight:normal" x="401.575" y="971.992">
      <tspan x="401.575" y="971.992">Просмотр мастеров</tspan>
    </text>
  </g>
  <g>
    <ellipse style="fill: #ffffff" cx="738.1" cy="1006.03" rx="78.1" ry="26.0333"/>
    <ellipse style="fill: none; fill-opacity:0; stroke-width: 2; stroke: #000000" cx="738.1" cy="1006.03" rx="78.1" ry="26.0333"/>
    <text font-size="12.7998" style="fill: #000000;text-anchor:middle;font-family:sans-serif;font-style:normal;font-weight:normal" x="738.1" y="1010.83">
      <tspan x="738.1" y="1010.83">Просмотр мастера</tspan>
    </text>
  </g>
  <g>
    <ellipse style="fill: #ffffff" cx="425.625" cy="1055.21" rx="105.625" ry="35.2083"/>
    <ellipse style="fill: none; fill-opacity:0; stroke-width: 2; stroke: #000000" cx="425.625" cy="1055.21" rx="105.625" ry="35.2083"/>
    <text font-size="12.7998" style="fill: #000000;text-anchor:middle;font-family:sans-serif;font-style:normal;font-weight:normal" x="425.625" y="1052.01">
      <tspan x="425.625" y="1052.01">Просмотр всех</tspan>
      <tspan x="425.625" y="1068.01">активных ремонтов</tspan>
    </text>
  </g>
  <g>
    <ellipse style="fill: #ffffff" cx="764.95" cy="881.65" rx="124.95" ry="41.65"/>
    <ellipse style="fill: none; fill-opacity:0; stroke-width: 2; stroke: #000000" cx="764.95" cy="881.65" rx="124.95" ry="41.65"/>
    <text font-size="12.7998" style="fill: #000000;text-anchor:middle;font-family:sans-serif;font-style:normal;font-weight:normal" x="764.95" y="878.45">
      <tspan x="764.95" y="878.45">Просмотр ремонтируемых</tspan>
      <tspan x="764.95" y="894.45">аппаратов мастера</tspan>
    </text>
  </g>
  <line style="fill: none; fill-opacity:0; stroke-width: 2; stroke: #000000" x1="125" y1="980" x2="320" y2="967.192"/>
  <line style="fill: none; fill-opacity:0; stroke-width: 2; stroke: #000000" x1="125" y1="980" x2="320" y2="1055.21"/>
  <g>
    <polygon style="fill: #ffffff" points="680,540 816.9,540 828.9,552 828.9,590 680,590 "/>
    <polygon style="fill: none; fill-opacity:0; stroke-width: 2; stroke: #000000" points="680,540 816.9,540 828.9,552 828.9,590 680,590 "/>
    <polyline style="fill: none; fill-opacity:0; stroke-width: 1; stroke: #000000" points="816.9,540 816.9,552 828.9,552 "/>
    <text font-size="12.8" style="fill: #000000;text-anchor:start;font-family:monospace;font-style:normal;font-weight:normal" x="687" y="563.65">
      <tspan x="687" y="563.65">Отдельный диалог</tspan>
      <tspan x="687" y="579.65">на каждый аппарат</tspan>
    </text>
  </g>
  <line style="fill: none; fill-opacity:0; stroke-width: 2; stroke-dasharray: 10; stroke: #000000" x1="629.7" y1="572" x2="679.002" y2="569.234"/>
  <g>
    <ellipse style="fill: #ffffff" cx="798.875" cy="1106.29" rx="78.875" ry="26.2917"/>
    <ellipse style="fill: none; fill-opacity:0; stroke-width: 2; stroke: #000000" cx="798.875" cy="1106.29" rx="78.875" ry="26.2917"/>
    <text font-size="12.7998" style="fill: #000000;text-anchor:middle;font-family:sans-serif;font-style:normal;font-weight:normal" x="798.875" y="1111.09">
      <tspan x="798.875" y="1111.09">Просмотр ремонта</tspan>
    </text>
  </g>
  <g>
    <line style="fill: none; fill-opacity:0; stroke-width: 2; stroke-dasharray: 10; stroke: #000000" x1="484.155" y1="976.723" x2="654.579" y2="996.393"/>
    <polyline style="fill: none; fill-opacity:0; stroke-width: 2; stroke: #000000" points="646.293,1000.47 656.8,996.65 647.439,990.536 "/>
  </g>
  <g>
    <rect style="fill: #ffffff" x="534.664" y="979.09" width="73.85" height="15.45"/>
    <text font-size="12.8" style="fill: #000000;text-anchor:middle;font-family:sans-serif;font-style:normal;font-weight:normal" x="571.589" y="991.89">
      <tspan x="571.589" y="991.89">"расширить"</tspan>
    </text>
  </g>
  <g>
    <line style="fill: none; fill-opacity:0; stroke-width: 2; stroke-dasharray: 10; stroke: #000000" x1="743.936" y1="978.999" x2="754.8" y2="928.672"/>
    <polyline style="fill: none; fill-opacity:0; stroke-width: 2; stroke: #000000" points="758.049,937.316 755.271,926.486 748.274,935.206 "/>
  </g>
  <g>
    <rect style="fill: #ffffff" x="712.915" y="943.925" width="73.85" height="15.45"/>
    <text font-size="12.8" style="fill: #000000;text-anchor:middle;font-family:sans-serif;font-style:normal;font-weight:normal" x="749.84" y="956.725">
      <tspan x="749.84" y="956.725">"расширить"</tspan>
    </text>
  </g>
  <g>
    <line style="fill: none; fill-opacity:0; stroke-width: 2; stroke-dasharray: 10; stroke: #000000" x1="531.25" y1="1055.21" x2="715.683" y2="1105.12"/>
    <polyline style="fill: none; fill-opacity:0; stroke-width: 2; stroke: #000000" points="706.883,1107.92 717.842,1105.71 709.495,1098.27 "/>
  </g>
  <g>
    <rect style="fill: #ffffff" x="588.7" y="1073.02" width="73.85" height="15.45"/>
    <text font-size="12.8" style="fill: #000000;text-anchor:middle;font-family:sans-serif;font-style:normal;font-weight:normal" x="625.625" y="1085.82">
      <tspan x="625.625" y="1085.82">"расширить"</tspan>
    </text>
  </g>
  <g>
    <line style="fill: none; fill-opacity:0; stroke-width: 2; stroke-dasharray: 10; stroke: #000000" x1="798.875" y1="1080" x2="793.77" y2="1028.89"/>
    <polyline style="fill: none; fill-opacity:0; stroke-width: 2; stroke: #000000" points="799.517,1036.12 793.547,1026.67 789.566,1037.11 "/>
  </g>
  <g>
    <rect style="fill: #ffffff" x="759.175" y="1044.5" width="73.85" height="15.45"/>
    <text font-size="12.8" style="fill: #000000;text-anchor:middle;font-family:sans-serif;font-style:normal;font-weight:normal" x="796.1" y="1057.3">
      <tspan x="796.1" y="1057.3">"расширить"</tspan>
    </text>
  </g>
  <g>
    <ellipse style="fill: #ffffff" cx="410.975" cy="1167.32" rx="70.975" ry="47.3167"/>
    <ellipse style="fill: none; fill-opacity:0; stroke-width: 2; stroke: #000000" cx="410.975" cy="1167.32" rx="70.975" ry="47.3167"/>
    <text font-size="12.7998" style="fill: #000000;text-anchor:middle;font-family:sans-serif;font-style:normal;font-weight:normal" x="410.975" y="1156.12">
      <tspan x="410.975" y="1156.12">Назначение</tspan>
      <tspan x="410.975" y="1172.12">аппаратов</tspan>
      <tspan x="410.975" y="1188.12">на ремонт</tspan>
    </text>
  </g>
  <g>
    <ellipse style="fill: #ffffff" cx="543.7" cy="672" rx="83.7" ry="32"/>
    <ellipse style="fill: none; fill-opacity:0; stroke-width: 2; stroke: #000000" cx="543.7" cy="672" rx="83.7" ry="32"/>
    <text font-size="12.7998" style="fill: #000000;text-anchor:middle;font-family:sans-serif;font-style:normal;font-weight:normal" x="543.7" y="668.8">
      <tspan x="543.7" y="668.8">Взятие заявки</tspan>
      <tspan x="543.7" y="684.8">из свободных</tspan>
    </text>
  </g>
  <line style="fill: none; fill-opacity:0; stroke-width: 2; stroke: #000000" x1="145" y1="700" x2="460" y2="672"/>
  <line style="fill: none; fill-opacity:0; stroke-width: 2; stroke: #000000" x1="125" y1="980" x2="340" y2="1167.32"/>
  <g>
    <ellipse style="fill: #ffffff" cx="442.3" cy="880.767" rx="122.3" ry="40.7667"/>
    <ellipse style="fill: none; fill-opacity:0; stroke-width: 2; stroke: #000000" cx="442.3" cy="880.767" rx="122.3" ry="40.7667"/>
    <text font-size="12.7998" style="fill: #000000;text-anchor:middle;font-family:sans-serif;font-style:normal;font-weight:normal" x="442.3" y="877.567">
      <tspan x="442.3" y="877.567">Назначение мастера</tspan>
      <tspan x="442.3" y="893.567">на диагностику аппарата</tspan>
    </text>
  </g>
  <line style="fill: none; fill-opacity:0; stroke-width: 2; stroke: #000000" x1="125" y1="980" x2="320" y2="880.767"/>
  <g>
    <ellipse style="fill: #ffffff" cx="394.3" cy="732" rx="74.3" ry="32"/>
    <ellipse style="fill: none; fill-opacity:0; stroke-width: 2; stroke: #000000" cx="394.3" cy="732" rx="74.3" ry="32"/>
    <text font-size="12.7998" style="fill: #000000;text-anchor:middle;font-family:sans-serif;font-style:normal;font-weight:normal" x="394.3" y="728.8">
      <tspan x="394.3" y="728.8">Диагностика</tspan>
      <tspan x="394.3" y="744.8">аппарата</tspan>
    </text>
  </g>
  <line style="fill: none; fill-opacity:0; stroke-width: 2; stroke: #000000" x1="145" y1="700" x2="320" y2="732"/>
  <g>
    <line style="fill: none; fill-opacity:0; stroke-width: 2; stroke-dasharray: 10; stroke: #000000" x1="428.835" y1="839.035" x2="406.32" y2="769.253"/>
    <polyline style="fill: none; fill-opacity:0; stroke-width: 2; stroke: #000000" points="413.462,775.106 405.633,767.125 403.945,778.177 "/>
  </g>
  <g>
    <rect style="fill: #ffffff" x="391.491" y="794.291" width="50.8" height="15.45"/>
    <text font-size="12.8" style="fill: #000000;text-anchor:middle;font-family:sans-serif;font-style:normal;font-weight:normal" x="416.891" y="807.091">
      <tspan x="416.891" y="807.091">"влияет"</tspan>
    </text>
  </g>
  <g>
    <ellipse style="fill: #ffffff" cx="789.225" cy="736.408" rx="109.225" ry="36.4083"/>
    <ellipse style="fill: none; fill-opacity:0; stroke-width: 2; stroke: #000000" cx="789.225" cy="736.408" rx="109.225" ry="36.4083"/>
    <text font-size="12.7998" style="fill: #000000;text-anchor:middle;font-family:sans-serif;font-style:normal;font-weight:normal" x="789.225" y="733.208">
      <tspan x="789.225" y="733.208">Решение о принятии</tspan>
      <tspan x="789.225" y="749.208">в ремонт компании</tspan>
    </text>
  </g>
  <g>
    <line style="fill: none; fill-opacity:0; stroke-width: 2; stroke-dasharray: 10; stroke: #000000" x1="468.6" y1="732" x2="675.529" y2="736.315"/>
    <polyline style="fill: none; fill-opacity:0; stroke-width: 2; stroke: #000000" points="667.662,741.152 677.764,736.362 667.871,731.154 "/>
  </g>
  <g>
    <rect style="fill: #ffffff" x="540.975" y="726.286" width="66.65" height="15.45"/>
    <text font-size="12.8" style="fill: #000000;text-anchor:middle;font-family:sans-serif;font-style:normal;font-weight:normal" x="574.3" y="739.086">
      <tspan x="574.3" y="739.086">"включает"</tspan>
    </text>
  </g>
</svg>
