<?xml version="1.0" encoding="UTF-8" standalone="no"?>
<!DOCTYPE svg PUBLIC "-//W3C//DTD SVG 1.0//EN" "http://www.w3.org/TR/2001/PR-SVG-20010719/DTD/svg10.dtd">
<svg width="40cm" height="64cm" viewBox="-1 -201 799 1272" xmlns="http://www.w3.org/2000/svg" xmlns:xlink="http://www.w3.org/1999/xlink">
  <g id="Фон">
    <ellipse style="fill: #000000; fill-opacity: 1; stroke: none" cx="391.45" cy="-170" rx="10" ry="10"/>
    <g>
      <ellipse style="fill: #ffffff; fill-opacity: 1; stroke-opacity: 1; stroke-width: 2; stroke: #000000" cx="391.45" cy="1055" rx="15" ry="15"/>
      <ellipse style="fill: #000000; fill-opacity: 1; stroke: none" cx="391.45" cy="1055" rx="10" ry="10"/>
    </g>
    <g>
      <rect style="fill: #ffffff; fill-opacity: 1; stroke-opacity: 1; stroke-width: 2; stroke: #000000" x="335.4" y="-100" width="112.1" height="36" rx="10" ry="10"/>
      <text font-size="12.8" style="fill: #000000; fill-opacity: 1; stroke: none;text-anchor:middle;font-family:sans-serif;font-style:normal;font-weight:normal" x="391.45" y="-78.1">
        <tspan x="391.45" y="-78.1">Поступивший</tspan>
      </text>
    </g>
    <g>
      <polygon style="fill: #ffffff; fill-opacity: 1; stroke-opacity: 1; stroke-width: 2; stroke: #000000" fill-rule="evenodd" points="0,-200 175.4,-200 187.4,-188 187.4,-118 0,-118 "/>
      <polyline style="fill: none; stroke-opacity: 1; stroke-width: 1; stroke: #000000" points="175.4,-200 175.4,-188 187.4,-188 "/>
      <text font-size="12.8" style="fill: #000000; fill-opacity: 1; stroke: none;text-anchor:start;font-family:monospace;font-style:normal;font-weight:normal" x="7" y="-175.1">
        <tspan x="7" y="-175.1">Субъект моделирования:</tspan>
        <tspan xml:space="preserve" x="7" y="-159.1">  Заказ на ремонт</tspan>
        <tspan x="7" y="-143.1">Точка зрения:</tspan>
        <tspan xml:space="preserve" x="7" y="-127.1">  Мастер</tspan>
      </text>
    </g>
    <g>
      <rect style="fill: #ffffff; fill-opacity: 1; stroke-opacity: 1; stroke-width: 2; stroke: #000000" x="300" y="100" width="182.9" height="36" rx="10" ry="10"/>
      <text font-size="12.8" style="fill: #000000; fill-opacity: 1; stroke: none;text-anchor:middle;font-family:sans-serif;font-style:normal;font-weight:normal" x="391.45" y="121.9">
        <tspan x="391.45" y="121.9">Продиагностированный</tspan>
      </text>
    </g>
    <text font-size="12.8" style="fill: #000000; fill-opacity: 1; stroke: none;text-anchor:start;font-family:sans-serif;font-style:normal;font-weight:normal" x="394.45" y="72.425">
      <tspan x="394.45" y="72.425">Диагностика аппарата</tspan>
    </text>
    <g>
      <rect style="fill: #ffffff; fill-opacity: 1; stroke-opacity: 1; stroke-width: 2; stroke: #000000" x="331.95" y="0" width="119" height="36" rx="10" ry="10"/>
      <text font-size="12.8" style="fill: #000000; fill-opacity: 1; stroke: none;text-anchor:middle;font-family:sans-serif;font-style:normal;font-weight:normal" x="391.45" y="21.9">
        <tspan x="391.45" y="21.9">Договорённый</tspan>
      </text>
    </g>
    <g>
      <polyline style="fill: none; stroke-opacity: 1; stroke-width: 2; stroke: #000000" points="391.45,-158.995 391.45,-130.002 391.45,-130.002 391.45,-105.481 "/>
      <polyline style="fill: none; stroke-opacity: 1; stroke-width: 2; stroke: #000000" points="386.45,-113.245 391.45,-103.245 396.45,-113.245 "/>
    </g>
    <g>
      <polyline style="fill: none; stroke-opacity: 1; stroke-width: 2; stroke: #000000" points="391.45,-62.9907 391.45,-32 391.45,-32 391.45,-5.48141 "/>
      <polyline style="fill: none; stroke-opacity: 1; stroke-width: 2; stroke: #000000" points="386.45,-13.2453 391.45,-3.24535 396.45,-13.2453 "/>
    </g>
    <g>
      <polyline style="fill: none; stroke-opacity: 1; stroke-width: 2; stroke: #000000" points="391.45,37.0093 391.45,68 391.45,68 391.45,94.5186 "/>
      <polyline style="fill: none; stroke-opacity: 1; stroke-width: 2; stroke: #000000" points="386.45,86.7547 391.45,96.7547 396.45,86.7547 "/>
    </g>
    <text font-size="12.8" style="fill: #000000; fill-opacity: 1; stroke: none;text-anchor:start;font-family:sans-serif;font-style:normal;font-weight:normal" x="394.45" y="-27.575">
      <tspan x="394.45" y="-27.575">Договор о диагностике</tspan>
    </text>
    <g>
      <rect style="fill: #ffffff; fill-opacity: 1; stroke-opacity: 1; stroke-width: 2; stroke: #000000" x="347.45" y="440" width="88" height="36" rx="10" ry="10"/>
      <text font-size="12.8" style="fill: #000000; fill-opacity: 1; stroke: none;text-anchor:middle;font-family:sans-serif;font-style:normal;font-weight:normal" x="391.45" y="461.9">
        <tspan x="391.45" y="461.9">Принятый</tspan>
      </text>
    </g>
    <g>
      <rect style="fill: #ffffff; fill-opacity: 1; stroke-opacity: 1; stroke-width: 2; stroke: #000000" x="160" y="840" width="112.7" height="52" rx="10" ry="10"/>
      <text font-size="12.8" style="fill: #000000; fill-opacity: 1; stroke: none;text-anchor:middle;font-family:sans-serif;font-style:normal;font-weight:normal" x="216.35" y="861.9">
        <tspan x="216.35" y="861.9">Отклонённый</tspan>
        <tspan x="216.35" y="877.9">заказчиком</tspan>
      </text>
    </g>
    <g>
      <polyline style="fill: none; stroke-opacity: 1; stroke-width: 2; stroke: #000000" points="391.45,357.009 391.45,398 391.45,398 391.45,434.519 "/>
      <polyline style="fill: none; stroke-opacity: 1; stroke-width: 2; stroke: #000000" points="386.45,426.755 391.45,436.755 396.45,426.755 "/>
    </g>
    <g>
      <polyline style="fill: none; stroke-opacity: 1; stroke-width: 2; stroke: #000000" points="338.4,226 216.35,226 216.35,835.528 "/>
      <polyline style="fill: none; stroke-opacity: 1; stroke-width: 2; stroke: #000000" points="211.35,827.764 216.35,837.764 221.35,827.764 "/>
    </g>
    <text font-size="12.8" style="fill: #000000; fill-opacity: 1; stroke: none;text-anchor:start;font-family:sans-serif;font-style:normal;font-weight:normal" x="394.45" y="394.425">
      <tspan x="394.45" y="394.425">Принятие</tspan>
      <tspan x="394.45" y="410.425">на ремонт</tspan>
    </text>
    <text font-size="12.8" style="fill: #000000; fill-opacity: 1; stroke: none;text-anchor:start;font-family:sans-serif;font-style:normal;font-weight:normal" x="219.35" y="521.425">
      <tspan x="219.35" y="521.425">Отказ от</tspan>
      <tspan x="219.35" y="537.425">ремонта</tspan>
      <tspan x="219.35" y="553.425">или неоплата</tspan>
    </text>
    <g>
      <rect style="fill: #ffffff; fill-opacity: 1; stroke-opacity: 1; stroke-width: 2; stroke: #000000" x="324.875" y="540" width="133.15" height="52" rx="10" ry="10"/>
      <text font-size="12.8" style="fill: #000000; fill-opacity: 1; stroke: none;text-anchor:middle;font-family:sans-serif;font-style:normal;font-weight:normal" x="391.45" y="561.9">
        <tspan x="391.45" y="561.9">Ремонтирование</tspan>
        <tspan x="391.45" y="577.9">аппарата</tspan>
      </text>
    </g>
    <g>
      <rect style="fill: #ffffff; fill-opacity: 1; stroke-opacity: 1; stroke-width: 2; stroke: #000000" x="334.225" y="660" width="114.45" height="36" rx="10" ry="10"/>
      <text font-size="12.8" style="fill: #000000; fill-opacity: 1; stroke: none;text-anchor:middle;font-family:sans-serif;font-style:normal;font-weight:normal" x="391.45" y="681.9">
        <tspan x="391.45" y="681.9">Тестирование</tspan>
      </text>
    </g>
    <g>
      <polyline style="fill: none; stroke-opacity: 1; stroke-width: 2; stroke: #000000" points="391.45,592.982 391.45,625.998 391.45,625.998 391.45,654.522 "/>
      <polyline style="fill: none; stroke-opacity: 1; stroke-width: 2; stroke: #000000" points="386.45,646.758 391.45,656.758 396.45,646.758 "/>
    </g>
    <g>
      <rect style="fill: #ffffff; fill-opacity: 1; stroke-opacity: 1; stroke-width: 2; stroke: #000000" x="339.175" y="840" width="104.55" height="36" rx="10" ry="10"/>
      <text font-size="12.8" style="fill: #000000; fill-opacity: 1; stroke: none;text-anchor:middle;font-family:sans-serif;font-style:normal;font-weight:normal" x="391.45" y="861.9">
        <tspan x="391.45" y="861.9">На гарантии</tspan>
      </text>
    </g>
    <g>
      <rect style="fill: #ffffff; fill-opacity: 1; stroke-opacity: 1; stroke-width: 2; stroke: #000000" x="351.45" y="960" width="80" height="36" rx="10" ry="10"/>
      <text font-size="12.8" style="fill: #000000; fill-opacity: 1; stroke: none;text-anchor:middle;font-family:sans-serif;font-style:normal;font-weight:normal" x="391.45" y="981.9">
        <tspan x="391.45" y="981.9">Рабочий</tspan>
      </text>
    </g>
    <g>
      <polyline style="fill: none; stroke-opacity: 1; stroke-width: 2; stroke: #000000" points="391.45,876 391.45,918 391.45,918 391.45,955.528 "/>
      <polyline style="fill: none; stroke-opacity: 1; stroke-width: 2; stroke: #000000" points="386.45,947.764 391.45,957.764 396.45,947.764 "/>
    </g>
    <text font-size="12.8" style="fill: #000000; fill-opacity: 1; stroke: none;text-anchor:start;font-family:sans-serif;font-style:normal;font-weight:normal" x="394.45" y="906.425">
      <tspan x="394.45" y="906.425">Конец гарантии</tspan>
      <tspan x="394.45" y="922.425">[С момента сдачи</tspan>
      <tspan x="394.45" y="938.425">в работу&gt; 3 месяцев]</tspan>
    </text>
    <g>
      <polyline style="fill: none; stroke-opacity: 1; stroke-width: 2; stroke: #000000" points="443.725,858 521.862,858 521.862,858 595.528,858 "/>
      <polyline style="fill: none; stroke-opacity: 1; stroke-width: 2; stroke: #000000" points="587.764,863 597.764,858 587.764,853 "/>
    </g>
    <text font-size="12.8" style="fill: #000000; fill-opacity: 1; stroke: none;text-anchor:middle;font-family:sans-serif;font-style:normal;font-weight:normal" x="521.862" y="851.95">
      <tspan x="521.862" y="851.95">Поломка аппарата</tspan>
    </text>
    <text font-size="12.8" style="fill: #000000; fill-opacity: 1; stroke: none;text-anchor:start;font-family:sans-serif;font-style:normal;font-weight:normal" x="394.45" y="512.426">
      <tspan x="394.45" y="512.426">Начало работ</tspan>
    </text>
    <text font-size="12.8" style="fill: #000000; fill-opacity: 1; stroke: none;text-anchor:start;font-family:sans-serif;font-style:normal;font-weight:normal" x="394.45" y="630.423">
      <tspan x="394.45" y="630.423">Починка</tspan>
    </text>
    <text font-size="12.8" style="fill: #000000; fill-opacity: 1; stroke: none;text-anchor:start;font-family:sans-serif;font-style:normal;font-weight:normal" x="394.45" y="764.425">
      <tspan x="394.45" y="764.425">Успешная работа</tspan>
      <tspan x="394.45" y="780.425">аппарата</tspan>
    </text>
    <g>
      <polyline style="fill: none; stroke-opacity: 1; stroke-width: 2; stroke: #000000" points="448.675,678 500,678 500,566 462.497,566 "/>
      <polyline style="fill: none; stroke-opacity: 1; stroke-width: 2; stroke: #000000" points="470.261,561 460.261,566 470.261,571 "/>
    </g>
    <text font-size="12.8" style="fill: #000000; fill-opacity: 1; stroke: none;text-anchor:start;font-family:sans-serif;font-style:normal;font-weight:normal" x="503" y="618.425">
      <tspan x="503" y="618.425">Выяснен</tspan>
      <tspan x="503" y="634.425">дефект</tspan>
    </text>
    <g>
      <polyline style="fill: none; stroke-opacity: 1; stroke-width: 2; stroke: #000000" points="391.45,997 391.45,1020 391.45,1020 391.45,1035.53 "/>
      <polyline style="fill: none; stroke-opacity: 1; stroke-width: 2; stroke: #000000" points="386.45,1027.76 391.45,1037.76 396.45,1027.76 "/>
    </g>
    <g>
      <polyline style="fill: none; stroke-opacity: 1; stroke-width: 2; stroke: #000000" points="216.35,893.005 216.35,1020 391.45,1020 391.45,1035.53 "/>
      <polyline style="fill: none; stroke-opacity: 1; stroke-width: 2; stroke: #000000" points="386.45,1027.76 391.45,1037.76 396.45,1027.76 "/>
    </g>
    <g>
      <polyline style="fill: none; stroke-opacity: 1; stroke-width: 2; stroke: #000000" points="391.45,477.009 391.45,508.001 391.45,508.001 391.45,534.521 "/>
      <polyline style="fill: none; stroke-opacity: 1; stroke-width: 2; stroke: #000000" points="386.45,526.757 391.45,536.757 396.45,526.757 "/>
    </g>
    <g>
      <rect style="fill: #ffffff; fill-opacity: 1; stroke-opacity: 1; stroke-width: 2; stroke: #000000" x="338.4" y="200" width="106.1" height="52" rx="10" ry="10"/>
      <text font-size="12.7998" style="fill: #000000; fill-opacity: 1; stroke: none;text-anchor:middle;font-family:sans-serif;font-style:normal;font-weight:normal" x="391.45" y="221.9">
        <tspan x="391.45" y="221.9">Ожидающий</tspan>
        <tspan x="391.45" y="237.9">оплаты</tspan>
      </text>
    </g>
    <g>
      <polyline style="fill: none; stroke-opacity: 1; stroke-width: 2; stroke: #000000" points="391.45,253.007 391.45,285.999 391.45,285.999 391.45,314.519 "/>
      <polyline style="fill: none; stroke-opacity: 1; stroke-width: 2; stroke: #000000" points="386.45,306.755 391.45,316.755 396.45,306.755 "/>
    </g>
    <g>
      <rect style="fill: #ffffff; fill-opacity: 1; stroke-opacity: 1; stroke-width: 2; stroke: #000000" x="351.45" y="320" width="80" height="36" rx="10" ry="10"/>
      <text font-size="12.7998" style="fill: #000000; fill-opacity: 1; stroke: none;text-anchor:middle;font-family:sans-serif;font-style:normal;font-weight:normal" x="391.45" y="341.9">
        <tspan x="391.45" y="341.9">Оплачен</tspan>
      </text>
    </g>
    <text font-size="12.8" style="fill: #000000; fill-opacity: 1; stroke: none;text-anchor:start;font-family:sans-serif;font-style:normal;font-weight:normal" x="394.45" y="282.424">
      <tspan x="394.45" y="282.424">Оплата</tspan>
      <tspan x="394.45" y="298.424">ремонта</tspan>
    </text>
    <g>
      <polyline style="fill: none; stroke-opacity: 1; stroke-width: 2; stroke: #000000" points="391.45,697.009 391.45,768 391.45,768 391.45,834.519 "/>
      <polyline style="fill: none; stroke-opacity: 1; stroke-width: 2; stroke: #000000" points="386.45,826.755 391.45,836.755 396.45,826.755 "/>
    </g>
    <g>
      <polyline style="fill: none; stroke-opacity: 1; stroke-width: 2; stroke: #000000" points="391.45,137.009 391.45,168.001 391.45,168.001 391.45,194.521 "/>
      <polyline style="fill: none; stroke-opacity: 1; stroke-width: 2; stroke: #000000" points="386.45,186.757 391.45,196.757 396.45,186.757 "/>
    </g>
    <g>
      <rect style="fill: #ffffff; fill-opacity: 1; stroke-opacity: 1; stroke-width: 2; stroke: #000000" x="607.025" y="320" width="182.9" height="36" rx="10" ry="10"/>
      <text font-size="12.7998" style="fill: #000000; fill-opacity: 1; stroke: none;text-anchor:middle;font-family:sans-serif;font-style:normal;font-weight:normal" x="698.475" y="341.9">
        <tspan x="698.475" y="341.9">Продиагностированный</tspan>
      </text>
    </g>
    <g>
      <polyline style="fill: none; stroke-opacity: 1; stroke-width: 2; stroke: #000000" points="607.025,338 500,338 500,458 440.928,458 "/>
      <polyline style="fill: none; stroke-opacity: 1; stroke-width: 2; stroke: #000000" points="448.692,453 438.692,458 448.692,463 "/>
    </g>
    <g>
      <polyline style="fill: none; stroke-opacity: 1; stroke-width: 2; stroke: #000000" points="607.025,338 500,338 500,226 448.972,226 "/>
      <polyline style="fill: none; stroke-opacity: 1; stroke-width: 2; stroke: #000000" points="456.736,221 446.736,226 456.736,231 "/>
    </g>
    <g>
      <rect style="fill: #ffffff; fill-opacity: 1; stroke-opacity: 1; stroke-width: 2; stroke: #000000" x="20" y="840" width="112.7" height="52" rx="10" ry="10"/>
      <text font-size="12.8" style="fill: #000000; fill-opacity: 1; stroke: none;text-anchor:middle;font-family:sans-serif;font-style:normal;font-weight:normal" x="76.35" y="861.9">
        <tspan x="76.35" y="861.9">Отклонённый</tspan>
        <tspan x="76.35" y="877.9">компанией</tspan>
      </text>
    </g>
    <g>
      <polyline style="fill: none; stroke-opacity: 1; stroke-width: 2; stroke: #000000" points="76.35,892 76.35,1020 391.45,1020 391.45,1035.53 "/>
      <polyline style="fill: none; stroke-opacity: 1; stroke-width: 2; stroke: #000000" points="386.45,1027.76 391.45,1037.76 396.45,1027.76 "/>
    </g>
    <g>
      <polyline style="fill: none; stroke-opacity: 1; stroke-width: 2; stroke: #000000" points="300,118 76.35,118 76.35,835.528 "/>
      <polyline style="fill: none; stroke-opacity: 1; stroke-width: 2; stroke: #000000" points="71.35,827.764 76.35,837.764 81.35,827.764 "/>
    </g>
    <text font-size="12.8" style="fill: #000000; fill-opacity: 1; stroke: none;text-anchor:start;font-family:sans-serif;font-style:normal;font-weight:normal" x="79.35" y="467.425">
      <tspan x="79.35" y="467.425">Отклонение</tspan>
      <tspan x="79.35" y="483.425">ремонта</tspan>
      <tspan x="79.35" y="499.425">мастером</tspan>
    </text>
    <text font-size="12.8" style="fill: #000000; fill-opacity: 1; stroke: none;text-anchor:start;font-family:sans-serif;font-style:normal;font-weight:normal" x="503" y="394.425">
      <tspan x="503" y="394.425">Диагностированна</tspan>
      <tspan x="503" y="410.425">гарантийная поломка</tspan>
    </text>
    <text font-size="12.8" style="fill: #000000; fill-opacity: 1; stroke: none;text-anchor:start;font-family:sans-serif;font-style:normal;font-weight:normal" x="503" y="278.425">
      <tspan x="503" y="278.425">Диагностированна</tspan>
      <tspan x="503" y="294.425">не гарантийная поломка</tspan>
    </text>
    <g>
      <rect style="fill: #ffffff; fill-opacity: 1; stroke-opacity: 1; stroke-width: 2; stroke: #000000" x="600" y="840" width="196.95" height="36" rx="10" ry="10"/>
      <text font-size="12.7998" style="fill: #000000; fill-opacity: 1; stroke: none;text-anchor:middle;font-family:sans-serif;font-style:normal;font-weight:normal" x="698.475" y="861.9">
        <tspan x="698.475" y="861.9">Ожидающий диагностики</tspan>
      </text>
    </g>
    <g>
      <polyline style="fill: none; stroke-opacity: 1; stroke-width: 2; stroke: #000000" points="698.475,838.991 698.475,598 698.475,598 698.475,361.481 "/>
      <polyline style="fill: none; stroke-opacity: 1; stroke-width: 2; stroke: #000000" points="703.475,369.245 698.475,359.245 693.475,369.245 "/>
    </g>
    <text font-size="12.8" style="fill: #000000; fill-opacity: 1; stroke: none;text-anchor:start;font-family:sans-serif;font-style:normal;font-weight:normal" x="701.475" y="594.238">
      <tspan x="701.475" y="594.238">Диагностика</tspan>
      <tspan x="701.475" y="610.238">аппарата</tspan>
    </text>
  </g>
</svg>
